# xmcd CD database file generated by Grip 2.96
# 
# Track frame offsets:
#       150
#       14835
#       32272
#       46079
#       60036
#       77038
#       90253
#       105350
#       119022
#       134254
# 
# Disc length: 1983 seconds
# 
# Revision: 0
# Processed by: cddbd v1.5PL3 Copyright (c) Steve Scherf et al.
# Submitted via: Grip 2.96
# 
DISCID=6b07bd0a
DTITLE=paul overstreet - sowin love
DYEAR=1900
DGENRE=
TTITLE0=love helps those
TTITLE1=all the fun
TTITLE2=call the preacher
TTITLE3=richest man on earth
TTITLE4=sowin love
TTITLE5=dig another well
TTITLE6=seein my father in me
TTITLE7=what god has joined together
TTITLE8=homemaker
TTITLE9=neath the light of your love
EXTD=
EXTT0=
EXTT1=
EXTT2=
EXTT3=
EXTT4=
EXTT5=
EXTT6=
EXTT7=
EXTT8=
EXTT9=
PLAYORDER=
